{"accessors" : [{"bufferView" : 0, "byteOffset" : 0, "componentType" : 5123, "count" : 17568, "type" : "SCALAR", "max" : [17567], "min" : [0]}, {"bufferView" : 1, "byteOffset" : 0, "componentType" : 5126, "count" : 17568, "type" : "VEC3", "max" : [3.4224853515625, 3.4644408226013184, 2.8207216262817383], "min" : [-2.747093439102173, -4.471901893615723, -3.1872401237487793], "name" : "POSITION"}, {"bufferView" : 1, "byteOffset" : 12, "componentType" : 5126, "count" : 17568, "type" : "VEC2", "max" : [0.9890549778938293, -0.11117500066757202], "min" : [-0.05224199965596199, -1.0006500482559204], "name" : "TEXCOORD_0"}, {"bufferView" : 1, "byteOffset" : 20, "componentType" : 5126, "count" : 17568, "type" : "VEC3", "max" : [0.999866783618927, 0.9999700784683228, 0.9993044137954712], "min" : [-0.999866783618927, -0.9996505975723267, -0.9988994598388672], "name" : "NORMAL"}], "asset" : {"generator" : "Aspose.3D 22.10", "version" : "2.0"}, "buffers" : [{"uri" : "data:application/octet-stream;base64,", "byteLength" : 597320}], "bufferViews" : [{"buffer" : 0, "byteOffset" : 0, "byteLength" : 35136, "target" : 34963}, {"buffer" : 0, "byteOffset" : 35140, "byteLength" : 562176, "byteStride" : 32, "target" : 34962}], "meshes" : [{"primitives" : [{"attributes" : {"POSITION" : 1, "TEXCOORD_0" : 2, "NORMAL" : 3}, "indices" : 0, "mode" : 4}], "name" : ""}], "nodes" : [{"mesh" : 0, "name" : "pMesh1"}], "scene" : 0, "scenes" : [{"nodes" : [0]}]}